<svg width="49" height="49" fill="none" xmlns="http://www.w3.org/2000/svg"><circle cx="24.129" cy="24.129" r="24.129" fill="#01457A"/><path d="M32.72 20.94a3.22 3.22 0 0 0-.991.169c-.091-.502-.401-.956-.869-1.273a2.681 2.681 0 0 0-1.655-.436 2.573 2.573 0 0 0-1.565.631 2.219 2.219 0 0 0-.881-.83 2.747 2.747 0 0 0-1.263-.315 2.492 2.492 0 0 0-1.429.404v-6.498c-.1-.666-.58-1.248-1.281-1.559a2.808 2.808 0 0 0-2.24 0c-.702.31-1.18.893-1.282 1.558v12.224l-1.865-2.19c-.481-.537-1.193-.892-1.982-.987a3.43 3.43 0 0 0-2.226.483c-.755.473-1.197 1.224-1.19 2.02 0 .541.194 1.07.555 1.515l6.351 7.274a25.75 25.75 0 0 1 1.945 2.491c1.072 1.516 1.508 2.088 3.93 2.088h5.557c2.104 0 2.461-1.347 2.7-2.357.238-1.01.238-1.044.595-1.347 1.429-1.28 1.468-3.434 1.468-4.445v-6.6c0-.535-.25-1.049-.697-1.428-.447-.379-1.052-.592-1.684-.592Z" fill="#fff"/></svg>