<svg width="80" height="80" fill="none" xmlns="http://www.w3.org/2000/svg"><path d="M0 0h40c22.091 0 40 17.909 40 40S62.091 80 40 80 0 62.091 0 40V0Z" fill="url(#a)"/><path d="M52.74 58.344H26.358a6.507 6.507 0 0 1-6.51-6.51c0-2.227 2.656-3.597 3.512-4.025l10.707-4.712c.857-.17 1.2-.428 1.2-1.627-.943-1.114-4.712-5.825-4.712-9.85 0-6.168 4.112-11.136 9.251-11.136 5.14 0 9.251 4.968 9.251 11.05 0 4.026-3.94 8.822-4.882 9.936-.086 1.285.17 1.456.942 1.713l10.536 3.683c1.798.686 3.511 3.084 3.511 4.883a6.402 6.402 0 0 1-6.424 6.595ZM34.581 44.811l-10.536 4.625c-1.199.6-2.484 1.542-2.484 2.484a4.789 4.789 0 0 0 4.797 4.797H52.74a4.789 4.789 0 0 0 4.797-4.797c0-1.114-1.285-2.827-2.398-3.255l-10.45-3.769c-1.97-.685-2.313-1.97-2.142-3.769v-.257l.172-.17c.085-.087 4.625-5.226 4.625-8.995 0-5.053-3.426-9.336-7.538-9.336-4.111 0-7.537 4.283-7.537 9.422 0 3.769 4.454 8.908 4.454 8.908l.17.257v.257c.172 2.056-.513 3.084-2.312 3.598Z" fill="#01457A"/><defs><linearGradient id="a" x1="0" y1="32.5" x2="80" y2="32.5" gradientUnits="userSpaceOnUse"><stop stop-color="#FDD966"/><stop offset=".685" stop-color="#BCD77E"/></linearGradient></defs></svg>