<svg width="80" height="81" fill="none" xmlns="http://www.w3.org/2000/svg"><path d="M0 .5h40c22.091 0 40 17.909 40 40s-17.909 40-40 40-40-17.909-40-40V.5Z" fill="url(#a)"/><path d="M56.004 56.504c8.68-8.68 8.68-22.803 0-31.483A22.117 22.117 0 0 0 40.262 18.5a22.12 22.12 0 0 0-15.742 6.52A22.118 22.118 0 0 0 18 40.762a22.12 22.12 0 0 0 6.52 15.742 22.117 22.117 0 0 0 15.742 6.52 22.119 22.119 0 0 0 15.742-6.52Zm-30.363-1.12a20.543 20.543 0 0 1-6.056-14.621 20.543 20.543 0 0 1 6.056-14.621 20.54 20.54 0 0 1 14.621-6.056 20.543 20.543 0 0 1 14.621 6.056c8.062 8.062 8.062 21.18 0 29.241a20.541 20.541 0 0 1-14.62 6.056 20.541 20.541 0 0 1-14.622-6.056Z" fill="#01457A"/><path d="m38.788 43.359 12.36-12.36v5.092a.793.793 0 1 0 1.585 0v-7.007c0-.102-.021-.199-.056-.289l-.004-.012a.795.795 0 0 0-.43-.431c-.005-.002-.01-.002-.013-.004a.784.784 0 0 0-.29-.056h-7.006a.793.793 0 1 0 0 1.586h5.092l-12.96 12.96 1.168 5.838-6.707 6.707a.792.792 0 1 0 1.122 1.121l7.306-7.306-1.167-5.84Z" fill="#01457A"/><defs><linearGradient id="a" x1="0" y1="33" x2="80" y2="33" gradientUnits="userSpaceOnUse"><stop stop-color="#FDD966"/><stop offset=".685" stop-color="#BCD77E"/></linearGradient></defs></svg>